<svg xmlns="http://www.w3.org/2000/svg" xmlns:xlink="http://www.w3.org/1999/xlink" width="77" zoomAndPan="magnify" viewBox="0 0 57.75 74.999997" height="100" preserveAspectRatio="xMidYMid meet" version="1.0"><defs><clipPath id="65d02136b7"><path d="M 0.890625 0.164062 L 55.792969 0.164062 L 55.792969 14.175781 L 0.890625 14.175781 Z M 0.890625 0.164062 " clip-rule="nonzero"/></clipPath><clipPath id="9bf0e691e9"><path d="M 55.792969 7.167969 C 55.792969 11.039062 52.65625 14.175781 48.785156 14.175781 L 7.921875 14.175781 C 4.054688 14.175781 0.917969 11.039062 0.917969 7.167969 C 0.917969 3.300781 4.054688 0.164062 7.921875 0.164062 L 48.785156 0.164062 C 52.65625 0.164062 55.792969 3.300781 55.792969 7.167969 Z M 55.792969 7.167969 " clip-rule="nonzero"/></clipPath><clipPath id="763daf0195"><path d="M 0.921875 3.636719 L 7.871094 3.636719 L 7.871094 73.328125 L 0.921875 73.328125 Z M 0.921875 3.636719 " clip-rule="nonzero"/></clipPath><clipPath id="ad67d8bef2"><path d="M 4.394531 3.636719 C 5.316406 3.636719 6.203125 4.003906 6.851562 4.65625 C 7.503906 5.304688 7.871094 6.191406 7.871094 7.113281 L 7.871094 69.855469 C 7.871094 70.777344 7.503906 71.660156 6.851562 72.3125 C 6.203125 72.964844 5.316406 73.328125 4.394531 73.328125 C 3.472656 73.328125 2.589844 72.964844 1.9375 72.3125 C 1.289062 71.660156 0.921875 70.777344 0.921875 69.855469 L 0.921875 7.113281 C 0.921875 6.191406 1.289062 5.304688 1.9375 4.65625 C 2.589844 4.003906 3.472656 3.636719 4.394531 3.636719 Z M 4.394531 3.636719 " clip-rule="nonzero"/></clipPath><clipPath id="e89538badd"><path d="M 48.847656 4.699219 L 55.796875 4.699219 L 55.796875 73.335938 L 48.847656 73.335938 Z M 48.847656 4.699219 " clip-rule="nonzero"/></clipPath><clipPath id="873f3c3ee2"><path d="M 52.320312 4.699219 C 53.242188 4.699219 54.128906 5.066406 54.777344 5.71875 C 55.429688 6.371094 55.796875 7.253906 55.796875 8.175781 L 55.796875 69.855469 C 55.796875 70.777344 55.429688 71.660156 54.777344 72.3125 C 54.128906 72.964844 53.242188 73.328125 52.320312 73.328125 C 51.398438 73.328125 50.515625 72.964844 49.863281 72.3125 C 49.210938 71.660156 48.847656 70.777344 48.847656 69.855469 L 48.847656 8.175781 C 48.847656 7.253906 49.210938 6.371094 49.863281 5.71875 C 50.515625 5.066406 51.398438 4.699219 52.320312 4.699219 Z M 52.320312 4.699219 " clip-rule="nonzero"/></clipPath><clipPath id="052c01ba16"><path d="M 25 49 L 56 49 L 56 74 L 25 74 Z M 25 49 " clip-rule="nonzero"/></clipPath><clipPath id="57e71a5fa1"><path d="M 23.914062 53.558594 L 28 47.933594 L 56.96875 68.984375 L 52.886719 74.605469 Z M 23.914062 53.558594 " clip-rule="nonzero"/></clipPath><clipPath id="3aa1fd1d4d"><path d="M 25.957031 50.746094 C 26.5 50 27.3125 49.5 28.226562 49.355469 C 29.136719 49.210938 30.066406 49.433594 30.8125 49.976562 L 54.152344 66.933594 C 54.898438 67.476562 55.398438 68.292969 55.542969 69.203125 C 55.6875 70.113281 55.460938 71.042969 54.921875 71.789062 C 54.378906 72.535156 53.5625 73.035156 52.652344 73.179688 C 51.742188 73.324219 50.8125 73.097656 50.066406 72.558594 L 26.726562 55.597656 C 25.980469 55.058594 25.480469 54.242188 25.335938 53.332031 C 25.191406 52.421875 25.414062 51.492188 25.957031 50.746094 Z M 25.957031 50.746094 " clip-rule="nonzero"/></clipPath><clipPath id="9d3753ca4f"><path d="M 1 49 L 33 49 L 33 74 L 1 74 Z M 1 49 " clip-rule="nonzero"/></clipPath><clipPath id="f39852b6ef"><path d="M 29.394531 48.128906 L 33.382812 53.824219 L 3.980469 74.410156 L -0.00390625 68.71875 Z M 29.394531 48.128906 " clip-rule="nonzero"/></clipPath><clipPath id="5781bce44c"><path d="M 31.390625 50.976562 C 31.917969 51.730469 32.125 52.667969 31.964844 53.574219 C 31.804688 54.480469 31.292969 55.289062 30.535156 55.816406 L 6.832031 72.414062 C 6.074219 72.945312 5.140625 73.152344 4.234375 72.992188 C 3.324219 72.832031 2.519531 72.316406 1.992188 71.5625 C 1.460938 70.808594 1.253906 69.875 1.414062 68.964844 C 1.574219 68.058594 2.089844 67.25 2.84375 66.722656 L 26.550781 50.125 C 27.304688 49.59375 28.238281 49.386719 29.144531 49.546875 C 30.054688 49.707031 30.859375 50.222656 31.390625 50.976562 Z M 31.390625 50.976562 " clip-rule="nonzero"/></clipPath><clipPath id="b4688370c1"><path d="M 16.523438 19.464844 L 40.265625 19.464844 L 40.265625 44.648438 L 16.523438 44.648438 Z M 16.523438 19.464844 " clip-rule="nonzero"/></clipPath></defs><g clip-path="url(#65d02136b7)"><g clip-path="url(#9bf0e691e9)"><path fill="#8d1413" d="M 55.792969 0.164062 L 55.792969 14.175781 L 0.890625 14.175781 L 0.890625 0.164062 Z M 55.792969 0.164062 " fill-opacity="1" fill-rule="nonzero"/></g></g><g clip-path="url(#763daf0195)"><g clip-path="url(#ad67d8bef2)"><path fill="#8d1413" d="M 0.921875 3.636719 L 7.871094 3.636719 L 7.871094 73.328125 L 0.921875 73.328125 Z M 0.921875 3.636719 " fill-opacity="1" fill-rule="nonzero"/></g></g><g clip-path="url(#e89538badd)"><g clip-path="url(#873f3c3ee2)"><path fill="#8d1413" d="M 48.847656 4.699219 L 55.796875 4.699219 L 55.796875 73.335938 L 48.847656 73.335938 Z M 48.847656 4.699219 " fill-opacity="1" fill-rule="nonzero"/></g></g><g clip-path="url(#052c01ba16)"><g clip-path="url(#57e71a5fa1)"><g clip-path="url(#3aa1fd1d4d)"><path fill="#8d1413" d="M 23.914062 53.558594 L 28 47.933594 L 56.96875 68.984375 L 52.886719 74.605469 Z M 23.914062 53.558594 " fill-opacity="1" fill-rule="nonzero"/></g></g></g><g clip-path="url(#9d3753ca4f)"><g clip-path="url(#f39852b6ef)"><g clip-path="url(#5781bce44c)"><path fill="#8d1413" d="M 29.394531 48.128906 L 33.382812 53.824219 L 3.980469 74.410156 L -0.00390625 68.71875 Z M 29.394531 48.128906 " fill-opacity="1" fill-rule="nonzero"/></g></g></g><g clip-path="url(#b4688370c1)"><path fill="#8d1413" d="M 28.476562 44.46875 C 27.53125 44.46875 26.808594 44.195312 26.304688 43.652344 C 25.800781 43.109375 25.546875 42.34375 25.546875 41.355469 L 25.546875 34.734375 L 19.359375 34.734375 C 18.445312 34.734375 17.742188 34.484375 17.253906 33.992188 C 16.765625 33.496094 16.523438 32.773438 16.523438 31.816406 C 16.523438 30.863281 16.765625 30.136719 17.253906 29.644531 C 17.742188 29.148438 18.445312 28.902344 19.359375 28.902344 L 25.546875 28.902344 L 25.546875 22.527344 C 25.546875 21.539062 25.800781 20.78125 26.304688 20.253906 C 26.808594 19.730469 27.546875 19.464844 28.523438 19.464844 C 29.46875 19.464844 30.1875 19.730469 30.675781 20.253906 C 31.164062 20.78125 31.40625 21.539062 31.40625 22.527344 L 31.40625 28.902344 L 37.597656 28.902344 C 38.511719 28.902344 39.210938 29.148438 39.699219 29.644531 C 40.1875 30.136719 40.433594 30.863281 40.433594 31.816406 C 40.433594 32.773438 40.1875 33.5 39.699219 33.992188 C 39.210938 34.484375 38.511719 34.734375 37.597656 34.734375 L 31.40625 34.734375 L 31.40625 41.355469 C 31.40625 42.34375 31.164062 43.109375 30.675781 43.652344 C 30.1875 44.195312 29.453125 44.46875 28.476562 44.46875 Z M 28.476562 44.46875 " fill-opacity="1" fill-rule="nonzero"/></g></svg>