<svg xmlns="http://www.w3.org/2000/svg" xmlns:xlink="http://www.w3.org/1999/xlink" width="102" zoomAndPan="magnify" viewBox="0 0 76.5 74.999997" height="100" preserveAspectRatio="xMidYMid meet" version="1.0"><defs><clipPath id="2f141242b6"><path d="M 0 0.242188 L 76 0.242188 L 76 74.523438 L 0 74.523438 Z M 0 0.242188 " clip-rule="nonzero"/></clipPath><clipPath id="6daa2cc9a2"><path d="M 37.140625 0.242188 L 38.726562 0.242188 C 59.238281 0.242188 75.867188 16.871094 75.867188 37.382812 C 75.867188 57.894531 59.238281 74.523438 38.726562 74.523438 L 37.140625 74.523438 C 16.628906 74.523438 0 57.894531 0 37.382812 C 0 16.871094 16.628906 0.242188 37.140625 0.242188 Z M 37.140625 0.242188 " clip-rule="nonzero"/></clipPath><clipPath id="13f4467905"><path d="M 15.796875 14.542969 L 59.761719 14.542969 L 59.761719 59.996094 L 15.796875 59.996094 Z M 15.796875 14.542969 " clip-rule="nonzero"/></clipPath></defs><g clip-path="url(#2f141242b6)"><g clip-path="url(#6daa2cc9a2)"><path fill="#8d1413" d="M 0 0.242188 L 75.730469 0.242188 L 75.730469 74.523438 L 0 74.523438 Z M 0 0.242188 " fill-opacity="1" fill-rule="nonzero"/></g></g><g clip-path="url(#13f4467905)"><path fill="#e09120" d="M 49.847656 55.351562 L 49.847656 57.355469 C 49.847656 58.929688 51.128906 60.207031 52.703125 60.207031 C 54.277344 60.207031 55.554688 58.929688 55.554688 57.355469 L 55.554688 49.089844 C 55.554688 49.082031 55.554688 49.070312 55.554688 49.0625 C 55.546875 48.257812 55.199219 47.464844 54.539062 46.90625 C 54.011719 46.464844 53.371094 46.246094 52.730469 46.238281 C 52.71875 46.238281 52.710938 46.238281 52.703125 46.238281 L 44.4375 46.238281 C 42.863281 46.238281 41.585938 47.515625 41.585938 49.089844 C 41.585938 50.554688 42.6875 51.761719 44.105469 51.925781 C 42.199219 52.699219 40.117188 53.125 37.9375 53.125 C 28.871094 53.125 21.507812 45.765625 21.507812 36.695312 C 21.507812 35.121094 20.230469 33.84375 18.65625 33.84375 C 17.082031 33.84375 15.800781 35.121094 15.800781 36.695312 C 15.800781 48.914062 25.722656 58.832031 37.9375 58.832031 C 42.320312 58.832031 46.410156 57.554688 49.847656 55.351562 Z M 20.320312 25.707031 C 20.328125 26.511719 20.671875 27.304688 21.335938 27.863281 C 21.863281 28.304688 22.503906 28.523438 23.144531 28.53125 C 23.152344 28.53125 23.164062 28.53125 23.171875 28.53125 L 31.433594 28.53125 C 33.007812 28.53125 34.289062 27.253906 34.289062 25.679688 C 34.289062 24.214844 33.1875 23.007812 31.769531 22.84375 C 33.671875 22.070312 35.757812 21.644531 37.9375 21.644531 C 47.003906 21.644531 54.367188 29.007812 54.367188 38.074219 C 54.367188 39.648438 55.644531 40.925781 57.21875 40.925781 C 58.792969 40.925781 60.070312 39.648438 60.070312 38.074219 C 60.070312 25.855469 50.152344 15.9375 37.9375 15.9375 C 33.550781 15.9375 29.464844 17.214844 26.023438 19.417969 L 26.023438 17.414062 C 26.023438 15.839844 24.746094 14.5625 23.171875 14.5625 C 21.597656 14.5625 20.320312 15.839844 20.320312 17.414062 L 20.320312 25.679688 C 20.320312 25.6875 20.320312 25.699219 20.320312 25.707031 Z M 20.320312 25.707031 " fill-opacity="1" fill-rule="evenodd"/></g></svg>