<svg xmlns="http://www.w3.org/2000/svg" xmlns:xlink="http://www.w3.org/1999/xlink" width="324" zoomAndPan="magnify" viewBox="0 0 242.87999 74.999997" height="100" preserveAspectRatio="xMidYMid meet" version="1.0"><defs><g/><clipPath id="30a7f240f2"><path d="M 0 0.0195312 L 242.761719 0.0195312 L 242.761719 74.746094 L 0 74.746094 Z M 0 0.0195312 " clip-rule="nonzero"/></clipPath><clipPath id="6e31327a50"><path d="M 37.363281 0.0195312 L 205.515625 0.0195312 C 226.152344 0.0195312 242.878906 16.746094 242.878906 37.382812 C 242.878906 58.015625 226.152344 74.746094 205.515625 74.746094 L 37.363281 74.746094 C 16.726562 74.746094 0 58.015625 0 37.382812 C 0 16.746094 16.726562 0.0195312 37.363281 0.0195312 Z M 37.363281 0.0195312 " clip-rule="nonzero"/></clipPath><clipPath id="d5a8bcfe0f"><path d="M 30 20 L 62 20 L 62 55 L 30 55 Z M 30 20 " clip-rule="nonzero"/></clipPath><clipPath id="e0a641f60c"><path d="M 17.46875 29.382812 L 47.007812 12.304688 L 62.351562 38.839844 L 32.8125 55.921875 Z M 17.46875 29.382812 " clip-rule="nonzero"/></clipPath><clipPath id="894f4c973f"><path d="M 35.71875 20.84375 L 59.3125 34.585938 C 60.386719 35.207031 61.042969 36.355469 61.042969 37.597656 C 61.039062 38.835938 60.378906 39.984375 59.304688 40.605469 L 35.929688 54.121094 C 34.855469 54.742188 33.53125 54.742188 32.457031 54.125 C 31.378906 53.507812 30.714844 52.367188 30.707031 51.125 L 30.566406 23.820312 C 30.558594 22.589844 31.214844 21.453125 32.277344 20.835938 C 33.34375 20.222656 34.65625 20.222656 35.71875 20.84375 Z M 35.71875 20.84375 " clip-rule="nonzero"/></clipPath></defs><g clip-path="url(#30a7f240f2)"><g clip-path="url(#6e31327a50)"><path fill="#8d1413" d="M 0 0.0195312 L 242.863281 0.0195312 L 242.863281 74.746094 L 0 74.746094 Z M 0 0.0195312 " fill-opacity="1" fill-rule="nonzero"/></g></g><g clip-path="url(#d5a8bcfe0f)"><g clip-path="url(#e0a641f60c)"><g clip-path="url(#894f4c973f)"><path fill="#e09120" d="M 13.65625 27.585938 L 47.464844 8.035156 L 64.542969 37.574219 L 30.738281 57.121094 Z M 13.65625 27.585938 " fill-opacity="1" fill-rule="nonzero"/></g></g></g><g fill="#ffffff" fill-opacity="1"><g transform="translate(74.596113, 43.378876)"><g><path d="M 1.375 -18.96875 L 8.15625 -18.96875 C 9.976562 -18.96875 11.460938 -18.476562 12.609375 -17.5 C 13.765625 -16.53125 14.34375 -15.140625 14.34375 -13.328125 C 14.34375 -11.929688 13.992188 -10.757812 13.296875 -9.8125 C 12.597656 -8.875 11.648438 -8.21875 10.453125 -7.84375 L 16.984375 0 L 11.484375 0 L 5.703125 -7.5 L 5.703125 0 L 1.375 0 Z M 5.703125 -10.546875 L 6.203125 -10.546875 C 6.597656 -10.546875 6.929688 -10.550781 7.203125 -10.5625 C 7.484375 -10.582031 7.800781 -10.640625 8.15625 -10.734375 C 8.507812 -10.828125 8.789062 -10.957031 9 -11.125 C 9.21875 -11.289062 9.40625 -11.535156 9.5625 -11.859375 C 9.71875 -12.179688 9.796875 -12.570312 9.796875 -13.03125 C 9.796875 -13.488281 9.71875 -13.878906 9.5625 -14.203125 C 9.40625 -14.523438 9.21875 -14.769531 9 -14.9375 C 8.789062 -15.101562 8.507812 -15.234375 8.15625 -15.328125 C 7.800781 -15.421875 7.484375 -15.472656 7.203125 -15.484375 C 6.929688 -15.503906 6.597656 -15.515625 6.203125 -15.515625 L 5.703125 -15.515625 Z M 5.703125 -10.546875 "/></g></g></g><g fill="#ffffff" fill-opacity="1"><g transform="translate(91.050434, 43.378876)"><g><path d="M 13.3125 -5.328125 L 4.75 -5.328125 C 4.75 -4.503906 5.015625 -3.890625 5.546875 -3.484375 C 6.085938 -3.085938 6.675781 -2.890625 7.3125 -2.890625 C 7.96875 -2.890625 8.488281 -2.976562 8.875 -3.15625 C 9.257812 -3.332031 9.695312 -3.679688 10.1875 -4.203125 L 13.125 -2.734375 C 11.894531 -0.679688 9.859375 0.34375 7.015625 0.34375 C 5.234375 0.34375 3.707031 -0.265625 2.4375 -1.484375 C 1.164062 -2.703125 0.53125 -4.164062 0.53125 -5.875 C 0.53125 -7.59375 1.164062 -9.066406 2.4375 -10.296875 C 3.707031 -11.523438 5.234375 -12.140625 7.015625 -12.140625 C 8.878906 -12.140625 10.394531 -11.597656 11.5625 -10.515625 C 12.738281 -9.429688 13.328125 -7.890625 13.328125 -5.890625 C 13.328125 -5.609375 13.320312 -5.421875 13.3125 -5.328125 Z M 4.875 -7.578125 L 9.359375 -7.578125 C 9.265625 -8.191406 9.019531 -8.664062 8.625 -9 C 8.238281 -9.332031 7.738281 -9.5 7.125 -9.5 C 6.445312 -9.5 5.910156 -9.320312 5.515625 -8.96875 C 5.117188 -8.613281 4.90625 -8.148438 4.875 -7.578125 Z M 4.875 -7.578125 "/></g></g></g><g fill="#ffffff" fill-opacity="1"><g transform="translate(104.907921, 43.378876)"><g><path d="M 13.515625 -10.328125 C 14.617188 -9.128906 15.171875 -7.65625 15.171875 -5.90625 C 15.171875 -4.15625 14.617188 -2.675781 13.515625 -1.46875 C 12.410156 -0.257812 11.007812 0.34375 9.3125 0.34375 C 7.75 0.34375 6.460938 -0.144531 5.453125 -1.125 L 5.453125 5.96875 L 1.375 5.96875 L 1.375 -11.796875 L 5.40625 -11.796875 L 5.40625 -10.453125 L 5.453125 -10.453125 C 6.460938 -11.578125 7.75 -12.140625 9.3125 -12.140625 C 11.007812 -12.140625 12.410156 -11.535156 13.515625 -10.328125 Z M 10.046875 -3.90625 C 10.578125 -4.425781 10.84375 -5.09375 10.84375 -5.90625 C 10.84375 -6.71875 10.585938 -7.378906 10.078125 -7.890625 C 9.578125 -8.410156 8.914062 -8.671875 8.09375 -8.671875 C 7.289062 -8.671875 6.632812 -8.410156 6.125 -7.890625 C 5.613281 -7.367188 5.359375 -6.707031 5.359375 -5.90625 C 5.359375 -5.09375 5.617188 -4.425781 6.140625 -3.90625 C 6.671875 -3.382812 7.320312 -3.125 8.09375 -3.125 C 8.875 -3.125 9.523438 -3.382812 10.046875 -3.90625 Z M 10.046875 -3.90625 "/></g></g></g><g fill="#ffffff" fill-opacity="1"><g transform="translate(120.603873, 43.378876)"><g><path d="M 1.375 0 L 1.375 -11.796875 L 5.453125 -11.796875 L 5.453125 -10.09375 L 5.5 -10.09375 C 5.53125 -10.15625 5.578125 -10.226562 5.640625 -10.3125 C 5.710938 -10.40625 5.863281 -10.566406 6.09375 -10.796875 C 6.320312 -11.023438 6.566406 -11.234375 6.828125 -11.421875 C 7.085938 -11.609375 7.421875 -11.773438 7.828125 -11.921875 C 8.242188 -12.066406 8.671875 -12.140625 9.109375 -12.140625 C 9.546875 -12.140625 9.976562 -12.078125 10.40625 -11.953125 C 10.84375 -11.828125 11.160156 -11.703125 11.359375 -11.578125 L 11.671875 -11.40625 L 9.96875 -7.953125 C 9.46875 -8.378906 8.765625 -8.59375 7.859375 -8.59375 C 7.367188 -8.59375 6.945312 -8.484375 6.59375 -8.265625 C 6.238281 -8.054688 5.988281 -7.796875 5.84375 -7.484375 C 5.695312 -7.179688 5.59375 -6.921875 5.53125 -6.703125 C 5.476562 -6.492188 5.453125 -6.328125 5.453125 -6.203125 L 5.453125 0 Z M 1.375 0 "/></g></g></g><g fill="#ffffff" fill-opacity="1"><g transform="translate(132.048363, 43.378876)"><g><path d="M 2.484375 -1.40625 C 1.179688 -2.570312 0.53125 -4.066406 0.53125 -5.890625 C 0.53125 -7.710938 1.210938 -9.207031 2.578125 -10.375 C 3.941406 -11.550781 5.625 -12.140625 7.625 -12.140625 C 9.601562 -12.140625 11.269531 -11.546875 12.625 -10.359375 C 13.976562 -9.179688 14.65625 -7.6875 14.65625 -5.875 C 14.65625 -4.070312 13.992188 -2.582031 12.671875 -1.40625 C 11.347656 -0.238281 9.664062 0.34375 7.625 0.34375 C 5.507812 0.34375 3.796875 -0.238281 2.484375 -1.40625 Z M 5.640625 -7.890625 C 5.109375 -7.367188 4.84375 -6.703125 4.84375 -5.890625 C 4.84375 -5.078125 5.09375 -4.410156 5.59375 -3.890625 C 6.101562 -3.378906 6.773438 -3.125 7.609375 -3.125 C 8.398438 -3.125 9.050781 -3.382812 9.5625 -3.90625 C 10.082031 -4.425781 10.34375 -5.085938 10.34375 -5.890625 C 10.34375 -6.703125 10.078125 -7.367188 9.546875 -7.890625 C 9.015625 -8.410156 8.367188 -8.671875 7.609375 -8.671875 C 6.828125 -8.671875 6.171875 -8.410156 5.640625 -7.890625 Z M 5.640625 -7.890625 "/></g></g></g><g fill="#ffffff" fill-opacity="1"><g transform="translate(147.238737, 43.378876)"><g><path d="M 2.1875 -1.453125 C 1.082031 -2.660156 0.53125 -4.132812 0.53125 -5.875 C 0.53125 -7.625 1.082031 -9.101562 2.1875 -10.3125 C 3.289062 -11.53125 4.691406 -12.140625 6.390625 -12.140625 C 7.953125 -12.140625 9.238281 -11.648438 10.25 -10.671875 L 10.25 -19.765625 L 14.3125 -19.765625 L 14.3125 0 L 10.296875 0 L 10.296875 -1.328125 L 10.25 -1.328125 C 9.238281 -0.210938 7.953125 0.34375 6.390625 0.34375 C 4.691406 0.34375 3.289062 -0.253906 2.1875 -1.453125 Z M 5.640625 -7.890625 C 5.109375 -7.367188 4.84375 -6.703125 4.84375 -5.890625 C 4.84375 -5.078125 5.09375 -4.410156 5.59375 -3.890625 C 6.101562 -3.378906 6.773438 -3.125 7.609375 -3.125 C 8.398438 -3.125 9.050781 -3.382812 9.5625 -3.90625 C 10.082031 -4.425781 10.34375 -5.085938 10.34375 -5.890625 C 10.34375 -6.703125 10.078125 -7.367188 9.546875 -7.890625 C 9.015625 -8.410156 8.367188 -8.671875 7.609375 -8.671875 C 6.828125 -8.671875 6.171875 -8.410156 5.640625 -7.890625 Z M 5.640625 -7.890625 "/></g></g></g><g fill="#ffffff" fill-opacity="1"><g transform="translate(162.934689, 43.378876)"><g><path d="M 5.21875 -11.796875 L 5.21875 -6.1875 C 5.21875 -5.019531 5.394531 -4.191406 5.75 -3.703125 C 6.101562 -3.210938 6.695312 -2.96875 7.53125 -2.96875 C 8.375 -2.96875 8.972656 -3.210938 9.328125 -3.703125 C 9.679688 -4.191406 9.859375 -5.019531 9.859375 -6.1875 L 9.859375 -11.796875 L 13.921875 -11.796875 L 13.921875 -5.1875 C 13.921875 -3.226562 13.410156 -1.816406 12.390625 -0.953125 C 11.378906 -0.0859375 9.757812 0.34375 7.53125 0.34375 C 5.3125 0.34375 3.691406 -0.0859375 2.671875 -0.953125 C 1.660156 -1.816406 1.15625 -3.226562 1.15625 -5.1875 L 1.15625 -11.796875 Z M 5.21875 -11.796875 "/></g></g></g><g fill="#ffffff" fill-opacity="1"><g transform="translate(178.010164, 43.378876)"><g><path d="M 7.65625 -8.796875 C 6.882812 -8.796875 6.222656 -8.515625 5.671875 -7.953125 C 5.117188 -7.390625 4.84375 -6.707031 4.84375 -5.90625 C 4.84375 -5.09375 5.117188 -4.398438 5.671875 -3.828125 C 6.222656 -3.265625 6.882812 -2.984375 7.65625 -2.984375 C 8.019531 -2.984375 8.363281 -3.03125 8.6875 -3.125 C 9.019531 -3.21875 9.265625 -3.3125 9.421875 -3.40625 L 9.625 -3.546875 L 11.015625 -0.71875 C 10.898438 -0.632812 10.75 -0.535156 10.5625 -0.421875 C 10.375 -0.304688 9.9375 -0.148438 9.25 0.046875 C 8.570312 0.242188 7.84375 0.34375 7.0625 0.34375 C 5.320312 0.34375 3.796875 -0.265625 2.484375 -1.484375 C 1.179688 -2.703125 0.53125 -4.160156 0.53125 -5.859375 C 0.53125 -7.578125 1.179688 -9.050781 2.484375 -10.28125 C 3.796875 -11.519531 5.320312 -12.140625 7.0625 -12.140625 C 7.84375 -12.140625 8.5625 -12.046875 9.21875 -11.859375 C 9.875 -11.671875 10.34375 -11.488281 10.625 -11.3125 L 11.015625 -11.03125 L 9.625 -8.25 C 9.125 -8.613281 8.46875 -8.796875 7.65625 -8.796875 Z M 7.65625 -8.796875 "/></g></g></g><g fill="#ffffff" fill-opacity="1"><g transform="translate(189.293784, 43.378876)"><g><path d="M 1.765625 -18.359375 C 2.242188 -18.835938 2.8125 -19.078125 3.46875 -19.078125 C 4.125 -19.078125 4.691406 -18.835938 5.171875 -18.359375 C 5.648438 -17.890625 5.890625 -17.320312 5.890625 -16.65625 C 5.890625 -16 5.648438 -15.429688 5.171875 -14.953125 C 4.691406 -14.484375 4.125 -14.25 3.46875 -14.25 C 2.8125 -14.25 2.242188 -14.484375 1.765625 -14.953125 C 1.296875 -15.429688 1.0625 -16 1.0625 -16.65625 C 1.0625 -17.320312 1.296875 -17.890625 1.765625 -18.359375 Z M 1.375 -11.796875 L 1.375 0 L 5.453125 0 L 5.453125 -11.796875 Z M 1.375 -11.796875 "/></g></g></g><g fill="#ffffff" fill-opacity="1"><g transform="translate(196.234011, 43.378876)"><g><path d="M 1.375 0 L 1.375 -11.796875 L 5.453125 -11.796875 L 5.453125 -10.09375 L 5.5 -10.09375 C 5.53125 -10.15625 5.578125 -10.226562 5.640625 -10.3125 C 5.710938 -10.40625 5.863281 -10.566406 6.09375 -10.796875 C 6.320312 -11.023438 6.566406 -11.234375 6.828125 -11.421875 C 7.085938 -11.609375 7.421875 -11.773438 7.828125 -11.921875 C 8.242188 -12.066406 8.671875 -12.140625 9.109375 -12.140625 C 9.546875 -12.140625 9.976562 -12.078125 10.40625 -11.953125 C 10.84375 -11.828125 11.160156 -11.703125 11.359375 -11.578125 L 11.671875 -11.40625 L 9.96875 -7.953125 C 9.46875 -8.378906 8.765625 -8.59375 7.859375 -8.59375 C 7.367188 -8.59375 6.945312 -8.484375 6.59375 -8.265625 C 6.238281 -8.054688 5.988281 -7.796875 5.84375 -7.484375 C 5.695312 -7.179688 5.59375 -6.921875 5.53125 -6.703125 C 5.476562 -6.492188 5.453125 -6.328125 5.453125 -6.203125 L 5.453125 0 Z M 1.375 0 "/></g></g></g></svg>