<svg xmlns="http://www.w3.org/2000/svg" xmlns:xlink="http://www.w3.org/1999/xlink" width="48" zoomAndPan="magnify" viewBox="3 2 30 32" height="46" preserveAspectRatio="xMidYMid meet" version="1.0"><defs><clipPath id="7ef5318296"><path d="M 3.664062 3.671875 L 31.976562 3.671875 L 31.976562 30.933594 L 3.664062 30.933594 Z M 3.664062 3.671875 " clip-rule="nonzero"/></clipPath><clipPath id="5e427cc310"><path d="M 19.457031 4.921875 L 20.417969 7.894531 C 21.371094 10.828125 24.105469 12.816406 27.191406 12.816406 L 30.285156 12.816406 C 31.015625 12.816406 31.664062 13.285156 31.886719 13.980469 C 32.113281 14.671875 31.867188 15.433594 31.277344 15.863281 L 28.765625 17.691406 C 26.269531 19.507812 25.226562 22.722656 26.179688 25.660156 L 27.140625 28.632812 C 27.367188 29.324219 27.121094 30.082031 26.53125 30.511719 C 25.941406 30.9375 25.144531 30.9375 24.554688 30.507812 L 22.042969 28.679688 C 19.550781 26.863281 16.167969 26.863281 13.675781 28.679688 L 11.164062 30.507812 C 10.574219 30.9375 9.777344 30.9375 9.1875 30.511719 C 8.597656 30.082031 8.351562 29.324219 8.578125 28.632812 L 9.539062 25.660156 C 10.492188 22.722656 9.449219 19.507812 6.953125 17.691406 L 4.441406 15.863281 C 3.851562 15.433594 3.605469 14.671875 3.832031 13.980469 C 4.054688 13.285156 4.703125 12.816406 5.433594 12.816406 L 8.527344 12.816406 C 11.613281 12.816406 14.347656 10.828125 15.300781 7.894531 L 16.261719 4.921875 C 16.488281 4.230469 17.132812 3.761719 17.859375 3.761719 C 18.585938 3.761719 19.230469 4.230469 19.457031 4.921875 Z M 19.457031 4.921875 " clip-rule="nonzero"/></clipPath></defs><g clip-path="url(#7ef5318296)"><g clip-path="url(#5e427cc310)"><path fill="#f2ab1a" d="M 0.257812 0 L 35.515625 0 L 35.515625 33.554688 L 0.257812 33.554688 Z M 0.257812 0 " fill-opacity="1" fill-rule="nonzero"/><path fill="#f2ab1a" d="M 0.257812 0 L 35.515625 0 L 35.515625 33.554688 L 0.257812 33.554688 Z M 0.257812 0 " fill-opacity="1" fill-rule="nonzero"/></g></g></svg>