<svg xmlns="http://www.w3.org/2000/svg" xmlns:xlink="http://www.w3.org/1999/xlink" width="49" zoomAndPan="magnify" viewBox="0 0 36.75 34.499999" height="46" preserveAspectRatio="xMidYMid meet" version="1.0"><defs><clipPath id="97a2073328"><path d="M 3.546875 3.671875 L 31.859375 3.671875 L 31.859375 30.933594 L 3.546875 30.933594 Z M 3.546875 3.671875 " clip-rule="nonzero"/></clipPath><clipPath id="c1382c31ea"><path d="M 19.335938 4.921875 L 20.300781 7.894531 C 21.253906 10.828125 23.988281 12.816406 27.070312 12.816406 L 30.167969 12.816406 C 30.898438 12.816406 31.542969 13.285156 31.769531 13.980469 C 31.996094 14.671875 31.75 15.433594 31.160156 15.863281 L 28.648438 17.691406 C 26.152344 19.507812 25.109375 22.722656 26.0625 25.660156 L 27.023438 28.632812 C 27.25 29.324219 27 30.082031 26.414062 30.511719 C 25.824219 30.9375 25.027344 30.9375 24.4375 30.507812 L 21.925781 28.679688 C 19.429688 26.863281 16.050781 26.863281 13.558594 28.679688 L 11.046875 30.507812 C 10.457031 30.9375 9.660156 30.9375 9.070312 30.511719 C 8.480469 30.082031 8.234375 29.324219 8.457031 28.632812 L 9.421875 25.660156 C 10.375 22.722656 9.328125 19.507812 6.835938 17.691406 L 4.324219 15.863281 C 3.734375 15.433594 3.488281 14.671875 3.710938 13.980469 C 3.9375 13.285156 4.585938 12.816406 5.3125 12.816406 L 8.410156 12.816406 C 11.496094 12.816406 14.230469 10.828125 15.183594 7.894531 L 16.144531 4.921875 C 16.371094 4.230469 17.015625 3.761719 17.742188 3.761719 C 18.46875 3.761719 19.113281 4.230469 19.335938 4.921875 Z M 19.335938 4.921875 " clip-rule="nonzero"/></clipPath><clipPath id="73bfccf0bd"><path d="M 3.835938 3.671875 L 32.144531 3.671875 L 32.144531 30.933594 L 3.835938 30.933594 Z M 3.835938 3.671875 " clip-rule="nonzero"/></clipPath><clipPath id="4129d0b502"><path d="M 19.625 4.921875 L 20.589844 7.894531 C 21.539062 10.828125 24.273438 12.816406 27.359375 12.816406 L 30.457031 12.816406 C 31.183594 12.816406 31.832031 13.285156 32.058594 13.980469 C 32.285156 14.671875 32.035156 15.433594 31.449219 15.863281 L 28.9375 17.691406 C 26.441406 19.507812 25.394531 22.722656 26.347656 25.660156 L 27.3125 28.632812 C 27.535156 29.324219 27.289062 30.082031 26.699219 30.511719 C 26.109375 30.9375 25.3125 30.9375 24.722656 30.507812 L 22.210938 28.679688 C 19.71875 26.863281 16.339844 26.863281 13.84375 28.679688 L 11.332031 30.507812 C 10.746094 30.9375 9.945312 30.9375 9.359375 30.511719 C 8.769531 30.082031 8.519531 29.324219 8.746094 28.632812 L 9.710938 25.660156 C 10.660156 22.722656 9.617188 19.507812 7.121094 17.691406 L 4.609375 15.863281 C 4.019531 15.433594 3.773438 14.671875 4 13.980469 C 4.226562 13.285156 4.871094 12.816406 5.601562 12.816406 L 8.699219 12.816406 C 11.785156 12.816406 14.519531 10.828125 15.46875 7.894531 L 16.433594 4.921875 C 16.65625 4.230469 17.300781 3.761719 18.027344 3.761719 C 18.757812 3.761719 19.398438 4.230469 19.625 4.921875 Z M 19.625 4.921875 " clip-rule="nonzero"/></clipPath></defs><g clip-path="url(#97a2073328)"><g clip-path="url(#c1382c31ea)"><path fill="#443c24" d="M 0.140625 0 L 35.398438 0 L 35.398438 33.554688 L 0.140625 33.554688 Z M 0.140625 0 " fill-opacity="1" fill-rule="nonzero"/></g></g><g clip-path="url(#73bfccf0bd)"><g clip-path="url(#4129d0b502)"><path fill="#443c24" d="M 0.425781 0 L 35.683594 0 L 35.683594 33.554688 L 0.425781 33.554688 Z M 0.425781 0 " fill-opacity="1" fill-rule="nonzero"/></g></g></svg>